<?xml version="1.0" standalone="no"?>
<!DOCTYPE svg PUBLIC "-//W3C//DTD SVG 20010904//EN"
 "http://www.w3.org/TR/2001/REC-SVG-20010904/DTD/svg10.dtd">
<svg version="1.0" xmlns="http://www.w3.org/2000/svg"
 width="888.000000pt" height="1047.000000pt" viewBox="0 0 888.000000 1047.000000"
 preserveAspectRatio="xMidYMid meet">
<metadata>
Created by potrace 1.10, written by Peter Selinger 2001-2011
</metadata>
<g transform="translate(0.000000,1047.000000) scale(0.100000,-0.100000)"
fill="#ff0088" stroke="none">
<path d="M4290 10377 c-48 -34 -120 -79 -150 -94 -14 -7 -41 -22 -60 -34 -57
-34 -354 -205 -370 -212 -26 -13 -145 -80 -236 -135 -49 -29 -97 -57 -106 -62
-10 -6 -26 -14 -35 -20 -10 -5 -31 -16 -48 -25 -16 -8 -57 -30 -90 -50 -33
-19 -73 -42 -90 -51 -16 -8 -47 -25 -67 -37 -20 -12 -58 -34 -85 -49 -26 -14
-68 -38 -93 -52 -25 -14 -56 -32 -70 -39 -14 -7 -43 -24 -65 -38 -23 -15 -63
-39 -90 -53 -28 -15 -57 -31 -65 -36 -104 -61 -211 -120 -218 -120 -5 0 -15
-6 -21 -14 -7 -8 -36 -27 -64 -42 -57 -30 -83 -45 -138 -77 -70 -41 -154 -89
-184 -105 -16 -8 -34 -21 -38 -29 -4 -7 -16 -13 -26 -13 -10 0 -24 -7 -31 -15
-7 -8 -18 -15 -24 -15 -6 0 -35 -16 -65 -35 -29 -19 -59 -35 -66 -35 -7 0 -18
-7 -25 -15 -7 -8 -24 -21 -39 -28 -59 -31 -127 -70 -142 -83 -8 -8 -23 -14
-32 -14 -9 0 -18 -4 -22 -9 -5 -9 -120 -79 -239 -145 -28 -15 -58 -34 -67 -42
-8 -8 -23 -14 -33 -14 -9 0 -19 -7 -22 -15 -4 -8 -11 -15 -18 -15 -6 -1 -47
-23 -91 -50 -44 -28 -92 -55 -107 -61 -16 -6 -28 -15 -28 -19 0 -5 -10 -12
-22 -16 -13 -4 -41 -18 -63 -33 -22 -14 -52 -32 -67 -41 -37 -21 -203 -121
-236 -142 -15 -10 -36 -22 -47 -28 -31 -17 -55 -32 -130 -80 -37 -25 -91 -58
-119 -74 -28 -15 -58 -34 -67 -42 -8 -8 -20 -14 -25 -14 -5 -1 -19 -9 -31 -19
l-23 -19 0 -2640 c0 -2102 3 -2641 13 -2646 6 -3 24 -14 39 -24 14 -9 56 -34
92 -55 36 -21 68 -42 71 -47 3 -6 15 -10 26 -10 10 0 19 -4 19 -9 0 -5 10 -13
22 -17 19 -5 84 -42 213 -121 11 -7 34 -19 50 -28 17 -9 44 -24 60 -35 17 -11
39 -24 50 -30 11 -5 27 -14 35 -19 8 -5 67 -39 130 -76 63 -37 122 -70 130
-75 56 -34 319 -185 361 -207 28 -16 67 -38 87 -50 20 -12 46 -26 57 -31 11
-6 54 -30 96 -55 41 -24 85 -48 97 -51 12 -4 22 -11 22 -16 0 -4 12 -13 28
-19 28 -12 179 -94 222 -122 49 -31 133 -81 154 -90 12 -5 33 -17 48 -27 53
-34 402 -237 420 -244 10 -4 24 -12 31 -18 22 -19 138 -90 146 -90 5 0 14 -6
20 -14 7 -8 36 -27 64 -42 29 -14 77 -42 107 -62 30 -19 79 -50 107 -68 29
-19 55 -34 57 -34 3 0 22 -12 43 -26 21 -14 47 -30 58 -35 11 -5 47 -27 80
-48 33 -22 76 -49 95 -61 19 -12 58 -35 87 -53 28 -18 77 -48 108 -67 32 -19
68 -42 80 -50 13 -8 50 -30 82 -49 32 -18 60 -37 63 -42 3 -4 17 -13 30 -18
14 -6 52 -29 85 -51 33 -21 84 -54 114 -72 59 -36 65 -40 129 -81 24 -15 54
-32 67 -37 14 -5 25 -14 25 -19 0 -5 10 -13 23 -17 12 -4 44 -22 72 -40 27
-19 55 -34 61 -34 7 0 35 16 64 35 29 19 54 35 56 35 2 0 28 16 58 35 30 19
57 35 60 35 2 0 31 18 64 40 33 21 77 49 98 60 22 12 66 39 99 61 33 21 71 43
83 49 13 6 55 30 93 55 38 25 72 45 76 45 3 0 20 10 37 23 17 12 49 32 71 44
22 11 56 30 75 42 19 11 49 27 65 36 17 8 57 32 90 53 33 21 103 62 155 92 52
30 102 60 111 65 9 6 34 20 55 33 22 13 62 37 91 55 28 18 91 56 140 85 48 29
121 73 161 97 41 25 77 45 81 45 4 0 16 9 26 20 10 11 26 20 35 20 10 0 23 7
30 15 7 8 17 15 22 15 10 0 150 80 158 91 3 3 17 12 32 20 14 8 50 27 80 42
29 16 60 35 69 43 8 8 23 14 32 14 9 0 18 4 22 9 3 6 46 34 96 63 50 29 108
63 128 75 20 12 45 27 56 33 11 5 34 19 50 30 17 11 44 27 60 35 17 9 57 33
90 55 33 22 71 46 85 53 23 11 80 45 125 75 11 7 34 19 50 27 17 9 57 33 90
55 61 39 148 92 197 120 87 49 516 313 636 392 24 15 46 28 50 28 4 0 30 16
59 35 157 104 230 148 305 183 l38 17 0 2603 c0 2174 -2 2602 -13 2602 -8 0
-27 7 -43 16 -87 47 -172 95 -250 142 -114 68 -116 69 -134 77 -24 10 -179 99
-238 137 -15 9 -52 30 -82 46 -30 16 -71 39 -90 51 -19 11 -44 25 -55 30 -21
9 -259 144 -285 161 -8 5 -28 16 -45 25 -51 25 -138 76 -183 106 -23 16 -66
40 -95 54 -47 24 -91 48 -198 109 -20 12 -72 41 -115 66 -44 25 -88 50 -99 57
-11 6 -47 26 -80 43 -106 57 -119 65 -150 86 -16 12 -57 36 -90 53 -33 18 -67
36 -75 41 -8 5 -66 38 -129 72 -62 35 -143 80 -180 100 -36 21 -73 41 -81 45
-8 4 -82 46 -165 93 -82 47 -170 95 -195 108 -52 26 -74 39 -112 64 -15 10
-33 18 -39 18 -7 0 -20 6 -28 14 -9 7 -52 33 -96 56 -129 68 -139 74 -155 86
-8 6 -26 15 -40 19 -14 4 -27 11 -30 14 -6 8 -147 88 -205 116 -22 11 -44 26
-48 33 -4 6 -16 12 -26 12 -10 0 -24 7 -31 15 -7 8 -17 15 -22 15 -5 0 -69 33
-141 73 -73 41 -139 77 -147 80 -8 4 -23 11 -32 17 -10 5 -26 15 -35 20 -10 6
-29 16 -43 22 -14 7 -63 35 -110 61 -106 61 -134 66 -180 34z m209 -910 c40
-23 90 -51 110 -63 20 -11 56 -32 81 -46 61 -35 371 -216 390 -227 34 -22 267
-158 314 -185 28 -15 74 -42 101 -60 85 -53 89 -56 115 -68 14 -7 43 -24 65
-37 22 -14 48 -30 57 -36 9 -5 50 -30 90 -55 40 -25 80 -49 90 -55 9 -5 40
-25 70 -43 29 -18 62 -38 73 -44 11 -7 39 -25 62 -40 23 -15 44 -28 48 -28 4
0 44 -24 88 -53 45 -29 93 -58 107 -65 41 -20 132 -72 185 -107 28 -18 83 -52
123 -75 40 -23 75 -46 78 -51 3 -5 11 -9 19 -9 13 0 95 -50 147 -90 14 -11 30
-20 35 -20 4 -1 40 -21 78 -45 39 -25 77 -48 85 -52 8 -3 72 -39 142 -80 69
-40 131 -73 137 -73 6 0 11 -4 11 -9 0 -5 12 -14 28 -20 30 -12 109 -55 225
-121 42 -25 165 -90 273 -145 l195 -100 4 -1345 c3 -1405 17 -2393 34 -2471
13 -62 17 -419 4 -427 -5 -4 -45 -29 -89 -56 -43 -27 -88 -57 -99 -66 -11 -10
-44 -31 -73 -46 -29 -16 -83 -45 -120 -66 -37 -20 -92 -49 -122 -64 -30 -15
-76 -40 -101 -55 -26 -15 -88 -49 -138 -76 -101 -53 -170 -91 -312 -171 -118
-66 -131 -73 -149 -83 -131 -68 -167 -87 -292 -160 -36 -22 -69 -39 -72 -39
-3 0 -24 -12 -48 -27 -24 -16 -52 -33 -63 -40 -11 -7 -59 -36 -107 -65 -49
-29 -100 -60 -115 -68 -40 -22 -62 -36 -337 -219 -137 -91 -256 -170 -265
-176 -49 -32 -99 -61 -121 -72 -14 -7 -52 -31 -85 -52 -33 -22 -70 -45 -83
-51 -13 -5 -38 -21 -55 -34 -18 -14 -43 -29 -57 -35 -14 -6 -32 -15 -40 -20
-58 -38 -259 -150 -277 -155 -11 -4 -27 -13 -33 -21 -7 -8 -21 -15 -31 -15
-10 0 -22 -6 -26 -12 -4 -7 -96 -58 -203 -112 -107 -54 -215 -110 -239 -122
-24 -13 -48 -24 -53 -24 -5 0 -27 12 -51 27 -45 29 -50 32 -124 77 -26 16 -57
36 -68 46 -11 9 -42 30 -69 46 -58 35 -68 41 -123 77 -24 15 -47 27 -53 27 -5
0 -18 8 -28 17 -9 10 -51 38 -92 63 -41 24 -93 57 -114 72 -21 16 -43 28 -47
28 -5 0 -45 25 -90 55 -45 30 -83 55 -86 55 -3 0 -22 13 -42 28 -20 15 -47 33
-61 40 -14 7 -51 29 -82 50 -47 31 -157 101 -306 194 -15 10 -45 27 -67 39
-22 12 -52 30 -67 40 -15 11 -41 28 -56 38 -16 10 -52 31 -80 46 -29 15 -55
31 -58 36 -3 5 -14 9 -25 9 -11 0 -22 7 -25 15 -4 8 -11 15 -17 15 -6 0 -38
17 -71 38 -89 55 -98 60 -131 77 -16 8 -46 24 -65 36 -19 12 -56 32 -82 46
-26 13 -52 31 -59 39 -6 8 -20 14 -30 14 -10 0 -21 4 -24 10 -3 5 -47 33 -98
60 -51 28 -99 55 -107 60 -8 5 -78 45 -155 90 -178 103 -172 100 -223 133 -24
15 -45 27 -48 27 -5 0 -108 60 -183 107 -20 12 -52 31 -71 41 -49 25 -201 115
-285 167 -38 24 -75 44 -82 45 -6 0 -13 4 -15 8 -2 5 -28 23 -59 40 -31 18
-61 38 -67 45 -12 15 -27 4246 -15 4263 12 15 132 84 147 84 8 0 19 7 26 15 7
8 21 15 31 15 10 0 21 5 24 10 3 6 23 18 43 28 20 10 55 29 77 41 22 13 72 41
110 63 39 21 77 43 85 48 8 6 34 19 57 31 23 11 47 27 54 35 6 8 16 14 22 14
5 0 39 18 74 40 35 23 74 45 86 51 12 5 36 18 52 29 17 11 44 26 60 34 17 9
39 21 50 28 11 7 58 35 105 63 47 28 94 56 105 62 11 7 34 19 50 27 17 8 71
40 120 70 50 31 116 69 147 85 31 17 59 35 63 41 3 5 15 10 25 10 10 0 23 6
27 13 4 6 42 30 83 51 41 22 86 48 99 58 13 10 29 18 36 18 7 0 18 6 24 14 7
8 36 27 64 42 58 31 83 45 142 80 22 13 65 37 95 54 64 35 85 48 122 72 15 10
32 18 37 18 6 0 27 12 48 26 21 14 49 30 62 35 12 5 46 24 75 42 75 48 88 55
126 75 41 22 180 97 230 125 19 11 53 30 75 43 22 13 67 37 100 54 33 17 74
40 90 50 17 11 39 24 50 29 11 5 65 35 120 67 55 32 116 67 137 78 80 46 135
81 171 108 71 56 92 55 216 -15z"/>
<path d="M4390 8731 c-8 -4 -40 -20 -70 -36 -30 -15 -62 -34 -71 -41 -8 -8
-21 -14 -27 -14 -6 0 -31 -13 -55 -30 -24 -16 -55 -34 -68 -40 -13 -5 -31 -14
-39 -18 -8 -5 -24 -14 -35 -20 -96 -54 -196 -115 -200 -123 -4 -5 -14 -9 -24
-9 -10 0 -24 -6 -30 -14 -11 -13 -61 -42 -146 -84 -16 -9 -34 -21 -38 -29 -4
-7 -17 -13 -27 -13 -38 0 -43 -33 -37 -239 4 -108 11 -216 17 -241 6 -25 13
-170 17 -322 5 -245 8 -278 22 -278 14 0 41 16 169 101 23 16 49 29 56 29 7 0
19 7 27 16 7 8 29 24 49 34 20 10 56 35 79 54 56 47 71 46 72 -1 12 -798 20
-1081 31 -1158 17 -118 16 -1324 -1 -1530 -14 -171 -26 -876 -14 -890 14 -17
183 -95 205 -95 9 0 21 -7 28 -15 7 -8 23 -15 35 -15 12 0 28 -6 34 -14 7 -8
27 -17 46 -20 19 -4 35 -11 35 -16 0 -6 5 -10 12 -10 6 0 34 -11 62 -24 29
-14 64 -28 80 -32 28 -7 98 10 126 31 8 6 40 23 70 39 30 15 69 36 85 47 17
10 37 22 45 26 8 3 26 15 39 25 13 10 32 18 42 18 9 0 27 12 39 27 l21 27 -5
1660 c-3 914 -8 1710 -11 1770 -8 134 -6 142 35 121 16 -8 30 -20 30 -25 0 -6
6 -10 14 -10 8 0 34 -15 58 -33 24 -18 50 -36 59 -39 8 -3 55 -33 105 -65 49
-33 99 -65 112 -72 13 -7 33 -22 44 -33 11 -11 34 -26 51 -34 18 -8 59 -35 92
-59 33 -24 74 -52 90 -61 17 -9 54 -34 84 -55 30 -22 59 -39 64 -39 6 0 17 -7
26 -16 9 -8 45 -34 81 -56 36 -22 88 -56 116 -74 28 -19 54 -34 58 -34 5 0 25
-13 46 -30 21 -16 41 -30 46 -30 4 0 40 -22 80 -50 40 -27 86 -56 101 -64 15
-8 38 -24 51 -36 l22 -21 -1 -1117 c-1 -1074 -4 -1237 -29 -1347 -11 -49 -13
-51 -93 -98 -45 -27 -109 -66 -142 -88 -33 -21 -71 -45 -85 -51 -14 -7 -39
-22 -55 -34 -17 -13 -41 -28 -55 -34 -14 -6 -42 -21 -62 -33 -20 -12 -78 -46
-127 -75 l-91 -53 0 -287 c0 -197 5 -318 15 -387 8 -55 15 -144 15 -197 0
-136 6 -140 113 -82 45 25 96 52 112 60 17 8 39 19 50 26 45 25 51 28 65 34 8
3 22 10 30 15 8 5 33 18 55 29 22 11 60 32 85 46 25 14 104 57 175 94 72 38
155 82 185 98 52 29 97 53 229 122 30 16 62 31 70 34 9 3 30 14 46 24 17 10
73 40 125 67 52 26 102 52 110 56 8 5 22 12 30 15 33 13 106 46 120 55 8 5 27
14 43 20 15 6 30 21 33 35 4 14 2 115 -4 227 -7 135 -8 475 -2 1032 5 457 9
1192 9 1635 l1 805 -33 20 c-55 35 -69 43 -172 95 -106 55 -125 64 -152 80
-10 5 -40 20 -68 32 -27 12 -70 33 -95 46 -25 14 -76 40 -115 60 -38 19 -77
39 -85 43 -8 5 -22 12 -30 15 -8 3 -22 10 -30 15 -8 5 -22 12 -30 15 -8 3 -28
12 -45 21 -64 33 -262 138 -300 159 -22 13 -67 37 -100 54 -33 17 -85 45 -115
62 -73 41 -195 106 -305 163 -49 26 -97 52 -105 59 -8 7 -53 31 -100 55 -47
23 -105 54 -130 68 -25 14 -70 38 -100 55 -30 16 -86 46 -125 67 -38 21 -108
58 -155 83 -109 58 -162 88 -175 98 -10 8 -83 48 -177 97 -26 14 -50 29 -53
33 -3 5 -19 11 -35 15 -17 4 -30 10 -30 15 0 4 -13 13 -30 20 -16 7 -59 32
-96 56 -72 47 -71 47 -94 35z"/>
<path d="M2225 7575 c-44 -30 -85 -54 -91 -55 -7 0 -14 -7 -18 -15 -3 -8 -14
-15 -24 -15 -11 0 -25 -7 -32 -15 -7 -8 -18 -15 -24 -15 -6 0 -35 -15 -63 -34
-29 -19 -62 -37 -73 -41 -11 -3 -20 -10 -20 -15 0 -4 -30 -23 -66 -41 -37 -19
-76 -40 -88 -47 -69 -42 -166 -95 -198 -109 -21 -9 -38 -20 -38 -25 0 -4 -7
-8 -15 -8 -8 0 -32 -9 -52 -20 -21 -11 -52 -20 -70 -20 l-33 0 0 -957 c-1
-527 -2 -1353 -4 -1835 -2 -740 -1 -881 11 -898 8 -11 49 -36 91 -56 42 -20
84 -40 92 -45 8 -5 22 -12 30 -15 8 -3 29 -12 45 -19 17 -8 41 -19 55 -25 14
-5 32 -14 40 -18 8 -5 24 -14 35 -20 11 -6 40 -21 65 -32 25 -11 56 -27 70
-35 14 -8 36 -19 50 -26 14 -6 32 -15 40 -19 27 -15 175 -88 190 -94 8 -3 47
-24 85 -46 39 -22 113 -61 165 -87 52 -26 127 -66 165 -88 39 -23 111 -63 160
-90 50 -27 122 -66 160 -86 39 -21 81 -43 95 -49 14 -6 32 -17 40 -24 8 -7 47
-30 85 -51 39 -20 77 -44 86 -51 8 -8 21 -14 27 -14 6 0 27 -10 45 -22 19 -13
50 -32 68 -43 19 -11 50 -30 69 -42 19 -13 49 -30 65 -39 52 -27 76 -41 88
-53 6 -6 19 -11 29 -11 10 0 21 -7 24 -15 3 -8 14 -17 25 -20 10 -4 65 -35
121 -70 57 -35 128 -76 158 -91 30 -15 73 -39 95 -53 22 -14 51 -31 65 -38 14
-7 57 -30 95 -51 39 -22 95 -51 125 -66 77 -39 132 -68 151 -79 12 -8 28 -1
64 26 26 21 53 37 60 37 7 0 18 7 25 15 7 8 21 15 31 15 9 0 24 7 33 15 8 8
17 15 21 15 8 0 119 55 170 83 22 13 76 43 120 67 44 24 82 46 85 49 3 3 17
13 32 21 15 8 52 29 82 47 l55 32 3 393 c3 254 8 405 16 426 6 18 14 75 18
127 9 123 1 135 -64 100 -26 -14 -54 -29 -62 -34 -8 -5 -22 -12 -30 -16 -8 -3
-33 -16 -55 -29 -22 -13 -101 -55 -175 -92 -74 -38 -149 -79 -168 -91 -18 -13
-39 -23 -47 -23 -8 0 -17 -4 -20 -10 -9 -15 -104 -60 -126 -60 -11 0 -22 7
-25 15 -4 8 -11 15 -17 15 -5 0 -33 15 -61 33 -27 17 -58 37 -67 42 -10 6 -43
26 -75 45 -97 60 -121 74 -165 98 -24 13 -54 32 -67 43 -14 10 -29 19 -34 19
-6 0 -22 9 -37 20 -16 10 -64 38 -107 60 -43 23 -86 44 -94 49 -22 12 -50 26
-111 56 -30 15 -61 31 -69 36 -8 5 -28 15 -45 22 -95 44 -172 80 -185 88 -8 5
-22 12 -30 15 -20 8 -161 74 -180 84 -38 22 -117 59 -137 65 -13 3 -23 11 -23
16 0 5 -5 9 -11 9 -7 0 -31 9 -55 20 -84 38 -129 59 -199 90 -38 17 -88 40
-110 50 -102 47 -193 83 -220 89 l-30 7 -5 1849 c-3 1219 -8 1849 -15 1851 -5
2 -46 -21 -90 -51z"/>
</g>
</svg>
